# xmcd
#
# Track frame offsets:
#	150
#	19161
#	39978
#	69573
#	83731
#	112070
#	136590
#	173723
#	197934
#	231551
#	252956
#	274829
#	308192
#	328542
#
# Disc length: 4700 seconds
#
# Revision: 1
# Processed by: cddbd v1.5.2PL0 Copyright (c) Steve Scherf et al.
# Submitted via: EZCDAudioConverter 7.0.0.1
#
DISCID=c3125a0e
DTITLE=Various Artist - Black and White Blues
DYEAR=2008
DGENRE=Blues
TTITLE0=Eric Burton - Woman Of The Rings
TTITLE1=Joe Cocker - Don't Let Me Be Misunderstood
TTITLE2=Lou Reed - Coney Island Baby
TTITLE3=The Band - I Shall Be Released
TTITLE4=The Flying Burrito Brothers - Wild Horses
TTITLE5=Marianne Faithfull - Sister Morphine
TTITLE6=Skin Alley - All Alone
TTITLE7=Little Feat - On Your Way Down
TTITLE8=Don Conway and Lemon Jefferson Blues Band - The House Of Blue Lights
TTITLE9=Don "Sugar Cane" Harris - I'm Gonna Miss You
TTITLE10=Otis Rush and Duane Allman - You Reap What You Sow
TTITLE11=Jeff Beck - Blues Deluxe
TTITLE12=Charles Musselwhite - Early In The Morning
TTITLE13=Nick Gravenites - Killing My Love
EXTD=
EXTT0=
EXTT1=
EXTT2=
EXTT3=
EXTT4=
EXTT5=
EXTT6=
EXTT7=
EXTT8=
EXTT9=
EXTT10=
EXTT11=
EXTT12=
EXTT13=
PLAYORDER=
